<svg xmlns="http://www.w3.org/2000/svg" width="56" height="51" viewBox="0 0 56 51" fill="none">
    <path d="M37.5015 40.5232C38.6542 39.6053 39.7886 38.7442 40.8768 37.8263C44.3963 34.8624 47.5797 31.5845 49.9255 27.5591C53.8456 20.8328 52.7854 12.066 47.4522 6.74625C45.0909 4.39187 42.4033 3.65018 39.2606 4.86644C39.1555 4.90765 39.0463 4.93464 38.9133 4.97585C38.2396 3.65728 37.3027 2.69109 35.6486 2.45096C37.3909 1.46346 39.0911 0.836855 40.9272 0.618042C44.8052 0.154838 47.8948 1.73058 50.4689 4.51264C57.0555 11.6284 57.8342 22.2096 52.403 30.6367C49.4703 35.1878 45.6469 38.8806 41.4356 42.1884C37.4231 45.3385 33.1389 48.0552 28.5984 50.3513C28.3113 50.4962 27.845 50.5616 27.5817 50.4252C20.0343 46.5547 13.0905 41.8261 7.333 35.4734C4.64961 32.5137 2.26593 29.3111 1.0965 25.4008C-1.32359 17.3133 0.22958 10.0796 6.08234 4.00539C9.68867 0.262824 14.0807 -0.423455 18.813 1.66238C19.6393 2.02754 20.4292 2.47938 21.2149 2.88149C20.8452 3.47683 20.4825 3.97413 20.215 4.51833C19.9475 5.06394 19.7766 5.65786 19.5735 6.20348C18.5876 5.74312 17.6226 5.22308 16.61 4.83092C13.76 3.72548 11.148 4.23558 8.97861 6.37825C4.26727 11.0316 2.82334 16.6781 4.28128 23.1317C4.32749 23.3349 4.39892 23.5466 4.51236 23.7185C7.30639 27.9669 10.5724 31.7663 14.8202 34.5896C16.7137 35.8485 18.7934 36.6627 21.0679 36.9014C21.3452 36.9298 21.6267 36.9411 21.9054 36.9284C22.1351 36.9184 22.3619 36.863 22.6182 36.7067C22.4194 36.6413 22.2205 36.576 22.023 36.5092C19.0497 35.5046 16.3817 33.9957 14.3496 31.5291C13.9462 31.0389 13.7039 30.3242 13.6087 29.6791C13.4561 28.6333 14.3272 27.9968 15.2221 28.5353C19.0987 30.8641 23.481 31.5404 27.7483 32.6061C28.922 32.8988 30.1292 33.1559 31.2272 33.6447C33.9442 34.8553 35.8405 36.9539 37.1052 39.6564C37.2214 39.9093 37.3363 40.1651 37.5015 40.5232Z" fill="#34d399"/>
    <path d="M20.2021 28.7456C21.7959 26.1099 23.5522 23.7811 26.0479 22.1158C27.8518 20.9109 29.6458 20.9095 31.3769 22.2295C34.5743 24.6677 36.6666 27.9257 37.9327 31.7223C38.2912 32.7965 38.4019 33.9744 38.4789 35.1153C38.5125 35.6226 38.1792 36.154 37.9537 36.8587C37.5518 36.3415 37.3067 36.0105 37.0462 35.6922C35.1639 33.3961 32.8068 31.9226 29.9119 31.2619C26.9372 30.5828 23.9877 29.7814 21.0299 29.0283C20.7862 28.9672 20.5523 28.8663 20.2021 28.7456Z" fill="#34d399"/>
    <path d="M30.2564 12.1285C30.248 9.66614 30.9217 7.4098 32.3894 5.44757C32.8544 4.82523 33.4804 4.26967 34.1415 3.86473C35.4299 3.07614 36.7576 3.44557 37.6231 4.69736C38.2898 5.65928 38.5503 6.7633 38.6105 7.90284C38.7576 10.6806 38.1301 13.2581 36.4369 15.4874C36.0069 16.0544 35.4369 16.5574 34.8375 16.9367C33.5084 17.7765 32.1303 17.4255 31.2396 16.1211C30.5631 15.1308 30.262 13.9017 30.2564 12.1285Z" fill="#34d399"/>
    <path d="M20.303 9.36491C20.2932 7.42543 20.5159 6.0827 21.1279 4.83234C22.2694 2.50211 24.4192 2.19237 26.132 4.12475C27.4065 5.56267 27.9765 7.33023 28.2566 9.19867C28.5297 11.0202 28.4835 12.8304 27.7538 14.5553C27.2748 15.6864 26.6516 16.7477 25.3099 16.941C23.8814 17.147 22.9346 16.2945 22.1643 15.2203C20.7946 13.3149 20.3423 11.1225 20.303 9.36491Z" fill="#34d399"/>
    <path d="M44.8839 20.3241C44.7284 22.65 43.9652 24.662 42.4848 26.3855C42.1375 26.7905 41.7257 27.1627 41.2818 27.4526C39.3028 28.7442 37.2525 28.0252 36.5802 25.7404C35.8198 23.1559 36.3393 20.7049 37.8001 18.5153C38.3827 17.6429 39.1922 16.8287 40.0745 16.2817C41.7383 15.2487 43.4484 15.8569 44.2256 17.677C44.5786 18.5011 44.6724 19.4389 44.8839 20.3241Z" fill="#34d399"/>
    <path d="M21.575 21.2306C21.2585 22.2451 21.068 23.3349 20.5904 24.2741C19.8215 25.7859 18.1885 26.2065 16.7642 25.3085C14.0598 23.6049 12.938 21.0018 13.0122 17.866C13.0346 16.904 13.2447 15.8711 13.6523 15.0086C14.4155 13.3931 15.9687 12.9739 17.5569 13.7909C19.1241 14.5966 20.0596 15.989 20.6521 17.5818C21.0736 18.7171 21.2585 19.9419 21.575 21.2306Z" fill="#34d399"/>
</svg>